<?xml version="1.0" encoding="UTF-8" standalone="no"?>
<svg
   xmlns:dc="http://purl.org/dc/elements/1.1/"
   xmlns:cc="http://creativecommons.org/ns#"
   xmlns:rdf="http://www.w3.org/1999/02/22-rdf-syntax-ns#"
   xmlns:svg="http://www.w3.org/2000/svg"
   xmlns="http://www.w3.org/2000/svg"
   version="1.0"
   width="250"
   height="135"
   id="svg2">
  <metadata
     id="metadata3075">
    <rdf:RDF>
      <cc:Work
         rdf:about="">
        <dc:format>image/svg+xml</dc:format>
        <dc:type
           rdf:resource="http://purl.org/dc/dcmitype/StillImage" />
        <dc:title></dc:title>
      </cc:Work>
    </rdf:RDF>
  </metadata>
  <defs
     id="defs5" />
  <path
     id="path74"
     style="fill:#4cb4e7;fill-opacity:1;fill-rule:nonzero;stroke:none"
     d="m 0,135 153.63897,0 1.92564,-11.2988 -153.6584797,0 L 0,135" />
  <path
     id="path28"
     style="fill:#ffee00;fill-opacity:1;fill-rule:nonzero;stroke:none"
     d="m 249.99814,57.042127 c -0.0464,-0.336174 -0.88632,-0.636125 -1.45021,-1.098997 -1.91063,-1.597468 -8.74929,-8.325645 -22.20016,-7.887478 -1.70516,0.05399 -3.25587,0.212095 -4.6686,0.456865 2.86446,-0.929567 4.34766,-1.486777 5.2115,-1.83289 1.04079,-0.408995 7.90344,-2.764015 11.60172,-14.826715 0.31644,-1.033947 1.20577,-3.517822 0.98831,-3.70414 -0.27743,-0.232627 -2.58849,0.179385 -4.92052,1.6023 -2.34256,1.420515 -10.20552,2.663218 -11.14135,2.81261 -0.54587,0.08635 -2.85393,-0.257832 -6.30776,1.552845 3.89174,-3.992945 8.01294,-9.671302 9.12123,-17.632575 0.52939,-3.820792 0.30594,-5.379647 0.13947,-5.369712 -0.22496,0.01695 -0.35693,0.01927 -0.64188,0.105587 -0.86382,0.251355 -1.74566,0.98609 -4.6041,2.897085 -2.86145,1.913258 -5.89534,4.033865 -5.89534,4.033865 0,0 1.03779,-10.403652 0.71386,-10.645537 -0.31794,-0.233825 -6.22229,-0.175745 -15.28952,9.917975 0,0 1.02881,-8.6485 -0.66737,-11.9121125 0,0 -0.47541,-2.3591 -0.84584,-3.5903075 -0.18145,-0.62086 -0.66586,-1.2732825 -0.74535,-1.21629 -0.096,0.0647675 -0.89682,0.1994825 -2.18807,1.678195 -1.9976,2.2870075 -11.29279,5.08906 -12.83449,17.117195 -1.16376,-4.850525 -3.63229,-11.343185 -9.73759,-14.63066 -3.44483,-3.3728975 -4.97453,-4.3791325 -5.14999,-4.2921675 -0.15749,0.077995 -0.093,1.5777 -0.6164,4.95504 -0.58639,3.787555 -1.11277,4.9855125 -1.11277,4.9855125 0,0 -6.39176,-5.6259575 -6.56122,-5.789335 -0.29845,-0.293985 -4.19769,12.048142 -3.05491,18.212915 0,0 -2.02309,-1.566073 -5.70488,-3.45879 -4.18268,-2.147598 -11.2148,-2.516058 -11.16682,-2.188173 0.087,0.554898 5.93583,11.989643 8.40137,16.005978 0,0 -15.76493,-2.710528 -15.48449,-1.724088 0.0885,0.322148 0.46192,0.944353 1.08429,3.572308 0,0 -6.18327,-0.133058 -6.1023,0.379605 0.0855,0.569412 4.68807,8.1764 5.04202,8.594047 0,0 -4.78858,0.922033 -5.79637,0.978298 -0.68387,0.03469 3.19737,10.75635 13.83779,13.435212 1.50721,0.376708 2.96643,0.656165 4.36714,0.86178 1.20278,0.11398 2.67849,0.257258 3.95773,0.377945 6.33026,0.248923 10.48895,-1.376132 9.7706,-3.718817 0,0 -0.20846,-0.868258 -6.7007,-3.23853 0,0 0.18297,-0.77442 0.61488,-0.882665 0.43642,-0.10196 7.1866,2.36908 6.70969,1.977 -0.4814,-0.40469 -2.95292,-3.14998 -2.50901,-3.125395 0.44541,0.02043 3.6143,1.361032 4.67158,0.372162 1.00331,-0.939187 1.6347,-2.67427 2.30055,-3.053287 0.66289,-0.374913 -1.76364,-2.624498 1.43073,-1.589465 0,0 2.17009,-1.219068 0.46492,-3.207935 -1.70966,-1.9958 -7.12662,-8.40361 1.70967,-0.671268 2.11007,1.851618 7.39954,-3.788597 6.96763,-6.856532 0,0 2.11159,2.129472 2.55698,2.357435 0.44993,0.228327 3.40736,0.581025 4.08222,-0.444753 0.30594,-0.470422 -1.08878,-4.838897 -0.19046,-6.758045 0,0 0.37642,-0.03352 0.73185,0.374323 0.35543,0.411272 0.39593,4.964282 2.0006,5.830017 0,0 1.80267,-1.056642 2.10561,-1.84174 0.31042,-0.791365 -0.48891,4.920943 4.91603,2.458795 0,0 2.63348,-2.339302 3.39233,-2.408417 0.74836,-0.07437 -0.56839,2.773255 0.0974,3.789215 0.66737,1.013952 2.88094,1.692997 3.5888,0.4263 0.70487,-1.269973 4.0777,-3.803638 4.34013,-3.703445 0.26696,0.10435 -1.71114,5.38658 -1.94511,5.903787 -0.32693,0.751075 -0.55938,1.86948 -0.55938,1.86948 0,0 0.25795,1.473323 2.09959,1.881018 0,0 3.47781,-2.030365 7.09961,-4.669618 -0.38244,0.45697 -0.76336,0.928603 -1.15028,1.438245 0,0 -4.68207,4.808453 -4.68207,5.504305 0.005,0.697316 1.60468,2.259643 2.91542,1.37278 1.31075,-0.87762 4.48263,-2.190554 4.76307,-1.962592 0.26694,0.22964 0.77384,0.879932 0.11698,1.263117 -0.65988,0.371315 -4.35066,2.301533 -4.35066,2.301533 0,0 4.21417,0.286615 9.36267,-0.756238 -5.57591,2.263616 -7.50452,5.704648 -7.45805,6.035193 0.16797,1.103653 8.83179,-1.143005 9.06274,-0.596395 1.24776,2.824825 -2.74147,1.079655 -4.48862,1.372507 -1.75166,0.288308 -6.24029,0.39208 -2.10708,3.930908 0,0 0.76784,0.0588 -1.27176,1.261805 -2.04561,1.20516 4.5441,1.918075 5.32545,2.795697 0.77835,0.877031 -6.53122,-0.08517 -6.38576,2.115913 0.13798,2.203955 -1.25974,0.81249 3.59631,5.99823 0,0 -2.91692,-0.67485 -3.25737,-0.267075 -0.33894,0.41415 6.38575,5.99475 6.34377,7.57655 0,0 -1.36323,0.95355 -1.94962,0.12175 -0.58333,-0.832525 -4.65053,-5.330425 -5.3089,-5.465175 -0.4979,-0.0984 -1.44571,0.13475 -1.89113,1.003475 0,0 1.78166,4.141725 1.22675,4.2637 -0.56088,0.1152 -3.33834,-1.847625 -3.33834,-1.847625 0,0 -1.82664,0.8066 -1.22676,2.459175 0.59688,1.6527 5.55341,7.272375 5.26847,7.616825 0,0 -0.41992,0.928625 -1.05579,0.8612 -0.64189,-0.0696 -4.07171,-6.27355 -4.91755,-6.510275 -0.84732,-0.240075 0.98682,5.795075 0.98682,5.795075 0,0 -3.0984,-3.256025 -3.91874,-3.93675 -0.82184,-0.679575 -0.94482,0.72285 -0.94482,0.72285 l 0.89383,6.8864 c 0,0 -9.63861,-14.3732 -7.28108,2.7597 0,0 -0.22494,0.976 -0.5399,0.9416 -0.31943,-0.02775 -2.37102,-5.6749 -2.13408,-7.212175 0.23696,-1.538325 -1.69317,4.2683 -1.69317,4.2683 0,0 -3.0204,-11.99945 -9.28017,0.308725 0,0 -0.43492,-4.656075 -1.39773,-5.445175 -0.95683,-0.79615 -1.72018,-1.0768 -1.99611,-1.08555 -0.20395,0 -1.47423,-0.0516 -2.61099,2.099575 -4.41215,5.7211 -7.24059,13.08142 -8.03694,19.44342 -0.13947,4.42415 0.35992,12.389 0.099,14.09723 -0.15447,0.99702 0.075,1.10665 0.23396,1.4383 0.048,0.0996 1.69766,-1.2625 2.22255,-1.60758 0.77086,-0.51432 8.82128,-11.3379 9.32669,-14.04622 0,0 4.29365,18.85417 5.75136,20.87697 0.31495,0.43815 0.58188,0.92383 0.79335,0.58355 0.42892,-0.6733 1.07379,-2.4342 1.55221,-2.5795 0.61787,-0.1845 2.43552,-0.41355 3.38782,-3.10247 0.95232,-2.69238 2.66949,-5.31685 3.47483,-12.2935 0,0 9.12271,11.63207 10.30898,12.71295 0.46942,0.4324 2.94842,-3.6936 4.03871,-10.3181 1.0978,-6.6257 -1.25524,-15.53085 -2.74145,-15.83545 0,0 -0.62089,-0.976 1.10828,-0.3579 0.98081,0.3579 4.78106,6.94677 13.53636,11.94677 1.4727,0.84885 4.60559,0.8587 4.62509,0.80375 0.70785,-1.96785 -6.1623,-19.950795 -6.1623,-19.950795 0,0 0.16797,-0.20685 1.54921,0.363175 1.38422,0.56535 14.50366,9.055 22.4686,5.0779 1.61068,-0.80855 1.70666,-0.981275 1.70666,-0.981275 0.91182,-3.916775 -6.1023,-11.326775 -10.40947,-14.69715 0,0 11.3123,-0.46155 13.04595,-3.4533 0,0 2.0861,-0.75465 3.15838,-2.237925 0.18747,-0.262375 -1.21627,-2.841775 -2.84643,-3.9736 -4.26968,-2.962463 -5.19648,-4.081503 -5.19648,-4.081503 0,0 1.19676,-1.441142 2.92292,-1.981152 1.72468,-0.54194 7.29457,-3.977843 5.80686,-5.673118 0,0 1.79214,-1.557737 1.72466,-1.966172" />
  <path
     id="path30"
     style="fill:#46962b;fill-opacity:1;fill-rule:nonzero;stroke:none"
     d="m 146.79581,117.1072 0.91934,-5.52195 c 0.13946,-0.84595 0.24594,-1.83885 0.32092,-2.96485 0.0764,-1.13245 0.11698,-2.4552 0.12897,-3.9836 0.0794,0.6737 0.18747,1.3831 0.31645,2.1254 0.13347,0.7392 0.28945,1.53548 0.46639,2.38883 l 1.72768,7.95617 5.91185,0 3.59628,-21.62745 -5.91334,0 -0.80983,4.86358 c -0.14847,0.90752 -0.27146,2.02645 -0.37943,3.3626 -0.10499,1.3327 -0.20397,2.94207 -0.28644,4.81852 l -0.31645,-1.90465 c -0.12597,-0.75635 -0.24294,-1.4294 -0.35543,-2.0023 -0.11097,-0.58175 -0.21445,-1.09898 -0.30143,-1.54303 l -1.76817,-7.59472 -5.5729,0 -3.5978,21.62745 5.91334,0" />
  <path
     id="path32"
     style="fill:#46962b;fill-opacity:1;fill-rule:nonzero;stroke:none"
     d="m 138.34047,117.1072 0.85934,-5.17277 -5.26697,0 0.50689,-3.03685 4.72258,0 0.85933,-5.17808 -4.72258,0 0.51141,-3.0676 5.26246,0 0.86234,-5.17215 -11.40077,0 -3.5948,21.62745 11.40077,0" />
  <path
     id="path34"
     style="fill:#46962b;fill-opacity:1;fill-rule:nonzero;stroke:none"
     d="m 114.31816,117.1072 0.91933,-5.52195 c 0.14096,-0.84595 0.24895,-1.83885 0.32243,-2.96485 0.078,-1.13245 0.11842,-2.4552 0.12597,-3.9836 0.081,0.6737 0.19047,1.3831 0.32395,2.1254 0.13047,0.7392 0.28344,1.53548 0.4634,2.38883 l 1.72617,7.95617 5.91185,0 3.59778,-21.62745 -5.91334,0 -0.80684,4.86358 c -0.15147,0.90752 -0.27744,2.02645 -0.38843,3.3626 -0.0975,1.3327 -0.19646,2.94207 -0.28344,4.81852 l -0.31344,-1.90465 c -0.12897,-0.75635 -0.24446,-1.4294 -0.35843,-2.0023 -0.11098,-0.58175 -0.20996,-1.09898 -0.29995,-1.54303 l -1.76814,-7.59472 -5.56992,0 -3.59929,21.62745 5.91033,0" />
  <path
     id="path36"
     style="fill:#46962b;fill-opacity:1;fill-rule:nonzero;stroke:none"
     d="m 90.240368,102.69487 c 0.409414,-2.44582 -0.148473,-4.333995 -1.675178,-5.65977 -1.20276,-1.033225 -3.18388,-1.55535 -5.95084,-1.55535 l -6.280772,0 -3.594796,21.62745 6.100808,0 1.259753,-7.56768 0.194962,-1.4265 c 0.05699,0.29995 0.10498,0.55958 0.143973,0.77275 0.03899,0.21155 0.06142,0.3885 0.06898,0.51545 l 1.748657,7.70598 6.63471,0 -3.06691,-8.99118 c 2.512013,-1 3.983235,-2.80852 4.416648,-5.42115 m -6.045328,-0.24904 c -0.136467,0.79497 -0.478397,1.44759 -1.033295,1.96487 -0.557892,0.51443 -1.18927,0.76735 -1.895632,0.76735 l -0.410918,0 0.857833,-5.1512 0.221955,0 c 1.77115,0 2.525502,0.80563 2.260057,2.41898" />
  <path
     id="path38"
     style="fill:#46962b;fill-opacity:1;fill-rule:nonzero;stroke:none"
     d="m 63.235137,109.15103 2.266058,0 c -0.07055,0.42595 -0.187465,0.80557 -0.346433,1.1488 -0.161967,0.3494 -0.350932,0.63742 -0.572887,0.87702 -0.221958,0.2403 -0.473908,0.42475 -0.760353,0.5566 -0.286442,0.13535 -0.59388,0.20098 -0.914825,0.20098 -0.815842,0 -1.340737,-0.39898 -1.582185,-1.20098 -0.239952,-0.79665 -0.212955,-2.0803 0.07942,-3.8454 0.692878,-4.15287 1.88064,-6.23615 3.56631,-6.23615 0.481408,0 0.847335,0.19978 1.100788,0.59895 0.25345,0.39713 0.365927,0.93728 0.340432,1.6162 l 6.28827,-2.0768 c -1.028797,-3.5394 -3.33685,-5.3105 -6.927147,-5.3105 -2.706968,0 -5.001518,0.9748 -6.882158,2.92165 -1.88363,1.94963 -3.10889,4.61153 -3.671277,7.99765 -0.551895,3.32908 -0.214463,5.95708 1.016805,7.86758 1.244755,1.89095 3.236357,2.84057 5.97183,2.84057 2.781955,0 5.048012,-0.96775 6.793672,-2.90215 1.597188,-1.77862 2.735463,-4.68767 3.404333,-8.72827 l 0.143972,-0.86513 -8.557327,0 -0.75735,4.53938" />
  <path
     id="path40"
     style="fill:#46962b;fill-opacity:1;fill-rule:nonzero;stroke:none"
     d="m 41.613867,117.1072 0.86083,-5.17277 -5.26698,0 0.503906,-3.03685 4.72558,0 0.857837,-5.17808 -4.722575,0 0.511393,-3.0676 5.26547,0 0.860827,-5.17215 -11.40226,0 -3.596305,21.62745 11.402278,0" />
  <path
     id="path42"
     style="fill:#46962b;fill-opacity:1;fill-rule:nonzero;stroke:none"
     d="m 30.992945,95.47975 -6.13681,0 -3.594791,21.62745 6.135299,0 3.596302,-21.62745" />
  <path
     id="path44"
     style="fill:#46962b;fill-opacity:1;fill-rule:nonzero;stroke:none"
     d="m 20.794937,106.3093 c 0.604385,-3.6414 -0.03457,-6.47455 -1.910631,-8.503825 -1.432218,-1.546 -3.662293,-2.325725 -6.691692,-2.325725 l -5.2954742,0 -3.5947923,21.62745 5.7363765,0 c 3.164386,0 5.685395,-0.83408 7.560026,-2.49443 2.201579,-1.95252 3.597796,-4.71762 4.196187,-8.30347 m -6.304776,0.2185 c -0.583379,3.5003 -1.982602,5.30175 -4.194677,5.40662 l 1.829645,-11.0105 0.194952,0 c 0.949321,0 1.619696,0.5009 2.011111,1.51313 0.392927,0.99412 0.446913,2.36487 0.158969,4.09075" />
  <path
     id="path46"
     style="fill:#46962b;fill-opacity:1;fill-rule:nonzero;stroke:none"
     d="m 163.00465,69.011125 c -1.07979,-1.939092 -2.87494,-2.905022 -5.37495,-2.905022 -2.479,0 -4.6131,0.956567 -6.38875,2.864097 -1.76967,1.902125 -2.92893,4.489025 -3.47032,7.7632 -0.5729,3.462875 -0.29845,6.16235 0.83383,8.087975 1.14127,1.93785 2.99941,2.909075 5.58042,2.909075 2.38003,0 4.43761,-0.957675 6.17128,-2.8792 1.72768,-1.9315 2.86745,-4.530775 3.41184,-7.793925 0.57139,-3.4269 0.31194,-6.107025 -0.76335,-8.0462 m -5.29247,8.009975 c -0.31793,1.900425 -0.71234,3.296475 -1.19226,4.1951 -0.47391,0.892125 -1.0588,1.337525 -1.75916,1.337525 -1.28375,0 -1.58519,-2.045875 -0.90582,-6.136575 0.57437,-3.42415 1.5147,-5.140025 2.82845,-5.140025 1.32125,0 1.66767,1.910975 1.02879,5.743975" />
  <path
     id="path48"
     style="fill:#46962b;fill-opacity:1;fill-rule:nonzero;stroke:none"
     d="m 145.01415,68.220353 c -1.12928,-1.412013 -2.80893,-2.11425 -5.03451,-2.11425 -2.35752,0 -4.37464,0.707645 -6.06781,2.124804 -1.69916,1.436368 -2.73697,3.277518 -3.11038,5.519643 -0.30744,1.866925 -0.0374,3.46445 0.82483,4.791375 0.87433,1.300525 2.09059,1.9484 3.64879,1.9484 0.62987,0 1.38422,-0.2038 2.27056,-0.617975 -0.29394,0.339175 -0.5609,0.65255 -0.79784,0.937225 -0.24446,0.28655 -0.44843,0.541375 -0.62389,0.7739 l -4.6581,6.146975 6.59274,0 2.69645,-3.7117 c 3.17489,-4.359725 4.97002,-7.765025 5.37645,-10.22325 0.38092,-2.3034 0.0119,-4.160525 -1.11729,-5.575147 m -4.75106,5.304047 c -0.30294,1.847025 -1.02579,2.77565 -2.16858,2.77565 -1.20576,0 -1.64816,-0.9164 -1.34672,-2.7488 0.32244,-1.937375 1.07978,-2.905725 2.26755,-2.905725 1.15177,0 1.56868,0.95505 1.24775,2.878875" />
  <path
     id="path50"
     style="fill:#46962b;fill-opacity:1;fill-rule:nonzero;stroke:none"
     d="m 112.21108,87.73045 c 2.08909,0 3.92622,-0.6642 5.50841,-1.9958 1.5897,-1.3392 2.5495,-3.029425 2.88995,-5.080775 0.20096,-1.20925 0.096,-2.261925 -0.32243,-3.16295 -0.41243,-0.898625 -1.19228,-1.78035 -2.34555,-2.636725 l -0.85933,-0.65855 c -0.74536,-0.551775 -1.06781,-1.10365 -0.97481,-1.661425 0.0584,-0.342075 0.26244,-0.6367 0.61786,-0.882225 0.34344,-0.251825 0.75286,-0.374875 1.22526,-0.374875 0.61789,0 1.21178,0.214975 1.77416,0.635625 0.5684,0.431175 1.03931,1.006975 1.41873,1.744475 l 1.0783,-6.481993 c -1.36473,-0.714817 -2.77298,-1.06913 -4.23667,-1.06913 -1.6377,0 -3.10891,0.448725 -4.41666,1.34735 -0.47389,0.315173 -0.90581,0.679088 -1.29874,1.091898 -0.39143,0.4102 -0.75285,0.8641 -1.08128,1.355125 -0.66438,1.065525 -1.0783,2.08665 -1.24177,3.05665 -0.0915,0.567275 -0.11541,1.109675 -0.066,1.62415 0.051,0.513 0.18748,1.011 0.40193,1.493825 0.21297,0.479775 0.5189,0.952475 0.91332,1.406375 0.39593,0.45635 0.88633,0.91335 1.47722,1.3767 l 0.88032,0.709525 c 0.63887,0.535475 0.91182,1.080325 0.81734,1.636275 -0.0644,0.39005 -0.28494,0.708075 -0.65987,0.9659 -0.37793,0.2606 -0.82783,0.38385 -1.35873,0.38385 -1.40223,0 -2.5765,-0.77685 -3.52281,-2.35155 l -1.10528,6.6515 c 1.55219,0.583325 3.0459,0.876775 4.48712,0.876775" />
  <path
     id="path52"
     style="fill:#46962b;fill-opacity:1;fill-rule:nonzero;stroke:none"
     d="m 108.83973,66.106103 -6.1338,0 -3.594793,21.624347 6.135303,0 3.59329,-21.624347" />
  <path
     id="path54"
     style="fill:#46962b;fill-opacity:1;fill-rule:nonzero;stroke:none"
     d="m 86.489598,87.73045 0.91933,-5.5201 c 0.143972,-0.847175 0.251942,-1.8419 0.325424,-2.96955 0.07499,-1.13245 0.116988,-2.4546 0.122983,-3.97425 0.08399,0.6672 0.188958,1.37255 0.32094,2.117725 0.13497,0.7453 0.286433,1.54315 0.466405,2.390775 l 1.72616,7.9554 5.91185,0 3.597795,-21.624347 -5.91185,0 -0.808338,4.859897 c -0.152972,0.901025 -0.27745,2.027 -0.383925,3.3621 -0.103532,1.3315 -0.199467,2.941975 -0.28494,4.8214 l -0.31795,-1.907525 c -0.125972,-0.75755 -0.24145,-1.426525 -0.355415,-2.003625 -0.110992,-0.5821 -0.209962,-1.0919 -0.301445,-1.5436 l -1.769662,-7.588648 -5.57291,0 -3.591803,21.624348 5.90735,0" />
  <path
     id="path56"
     style="fill:#46962b;fill-opacity:1;fill-rule:nonzero;stroke:none"
     d="m 80.507262,76.93435 c 0.604383,-3.649075 -0.03298,-6.4809 -1.910627,-8.506103 -1.42922,-1.548887 -3.659283,-2.322145 -6.690193,-2.322145 l -5.295465,0 -3.596292,21.624348 5.736375,0 c 3.167382,0 5.689887,-0.8318 7.564522,-2.490825 2.19707,-1.953725 3.593295,-4.7194 4.19168,-8.305275 m -6.30177,0.2192 c -0.584885,3.500325 -1.98411,5.296975 -4.197677,5.400175 l 1.832642,-11.00895 0.191963,0 c 0.952313,0 1.618185,0.5039 2.014103,1.51555 0.389927,0.9988 0.442415,2.360875 0.15897,4.093225" />
  <path
     id="path58"
     style="fill:#46962b;fill-opacity:1;fill-rule:nonzero;stroke:none"
     d="m 50.396147,87.73045 0.916325,-5.5201 c 0.140968,-0.847175 0.248953,-1.8419 0.326935,-2.96955 0.07199,-1.13245 0.115538,-2.4546 0.122968,-3.97425 0.07955,0.6672 0.190467,1.37255 0.319445,2.117725 0.134973,0.7453 0.290935,1.54315 0.466408,2.390775 l 1.727667,7.9554 5.91034,0 3.596295,-21.624347 -5.911842,0 L 57.06235,70.966 c -0.148475,0.901025 -0.278945,2.027 -0.382432,3.3621 -0.101976,1.3315 -0.199468,2.941975 -0.284938,4.8214 l -0.317952,-1.907525 c -0.122965,-0.75755 -0.245948,-1.426525 -0.355415,-2.003625 -0.110975,-0.5821 -0.211458,-1.0919 -0.301443,-1.5436 l -1.768155,-7.588648 -5.571412,0 -3.59481,21.624348 5.910355,0" />
  <path
     id="path60"
     style="fill:#46962b;fill-opacity:1;fill-rule:nonzero;stroke:none"
     d="m 25.863942,72.238975 c 0.30294,-1.82005 -0.103547,-3.30525 -1.216259,-4.45738 -1.097793,-1.119023 -2.981422,-1.675493 -5.6479,-1.675493 l -7.134104,0 -3.596302,21.624348 8.590332,0 c 2.048592,0 3.794245,-0.5682 5.241474,-1.711125 1.450218,-1.127625 2.332036,-2.62085 2.642481,-4.477975 0.244455,-1.4787 0.05699,-2.60455 -0.563898,-3.389 -0.616375,-0.787425 -1.712659,-1.289975 -3.284348,-1.51325 2.859934,-0.22665 4.517112,-1.6888 4.968524,-4.400125 m -9.505147,6.647975 c 0.793343,0 1.388728,0.18455 1.783149,0.561275 0.389937,0.374925 0.535403,0.89335 0.424427,1.55935 -0.112427,0.6644 -0.430423,1.191125 -0.947825,1.588225 -0.523398,0.397125 -1.165264,0.589325 -1.933115,0.589325 -0.05699,0 -0.128978,0 -0.218963,0 -0.08553,0 -0.18896,-0.012 -0.305931,-0.017 l 0.710861,-4.275825 0.487397,0 z m 3.37734,-6.408275 c -0.100543,0.588125 -0.388412,1.045725 -0.86983,1.370825 -0.482897,0.329875 -1.090287,0.48905 -1.823633,0.48905 l -0.412422,0 0.617871,-3.70755 c 0.145481,-0.012 0.272949,-0.018 0.376434,-0.0215 0.103533,0 0.190453,-0.012 0.260945,-0.012 1.439723,0 2.057592,0.6257 1.850635,1.87705" />
  <path
     id="path62"
     style="fill:#46962b;fill-opacity:1;fill-rule:nonzero;stroke:none"
     d="m 100.50736,109.58872 c -0.16196,0.97196 -0.38992,1.64683 -0.67787,2.0311 -0.287945,0.36558 -0.724362,0.54723 -1.31224,0.54723 -0.568385,0 -0.941817,-0.1963 -1.11578,-0.59248 -0.175472,-0.38535 -0.182963,-1.05432 -0.02702,-1.9976 l 2.321543,-13.951845 -6.133803,0 -2.408523,14.466305 c -0.461907,2.77735 0.10498,4.79439 1.700665,6.0545 1.255251,0.99232 2.934928,1.48615 5.034515,1.48615 1.85364,0 3.501818,-0.4499 4.943038,-1.34566 1.07378,-0.67307 1.88363,-1.42472 2.43701,-2.25545 0.5519,-0.79314 0.93582,-1.83227 1.14878,-3.11002 l 2.54351,-15.295825 -6.1338,0 -2.32005,13.963595" />
  <path
     id="path64"
     style="fill:#46962b;fill-opacity:1;fill-rule:nonzero;stroke:none"
     d="m 100.59434,89.9637 c -0.37342,-0.437575 -0.887818,-0.65375 -1.540193,-0.65375 -0.64188,0 -1.228264,0.216175 -1.754652,0.65375 -0.530905,0.433575 -0.84585,0.9585 -0.94932,1.58235 -0.101978,0.615 0.04043,1.13345 0.422915,1.567025 0.383927,0.438275 0.89683,0.65555 1.540205,0.65555 0.632865,0 1.213255,-0.217275 1.744155,-0.65555 0.53689,-0.44055 0.86083,-0.96245 0.95831,-1.567025 0.10498,-0.62385 -0.0346,-1.148775 -0.42142,-1.58235" />
  <path
     id="path66"
     style="fill:#46962b;fill-opacity:1;fill-rule:nonzero;stroke:none"
     d="m 107.11507,89.97725 c -0.39293,-0.44715 -0.91033,-0.6673 -1.5507,-0.6673 -0.65387,0 -1.24175,0.216175 -1.77415,0.65375 -0.5279,0.433575 -0.84433,0.955475 -0.94332,1.5688 -0.10497,0.622075 0.0346,1.147 0.42142,1.580575 0.38243,0.438275 0.90583,0.65555 1.5657,0.65555 0.64487,0 1.22976,-0.217275 1.75765,-0.65555 0.5294,-0.433575 0.84283,-0.947825 0.94331,-1.544825 0.10343,-0.629775 -0.0346,-1.15765 -0.41991,-1.591" />
  <path
     id="path68"
     style="fill:#46962b;fill-opacity:1;fill-rule:nonzero;stroke:none"
     d="m 36.519357,80.06565 c -0.161972,0.9689 -0.385422,1.65435 -0.674862,2.03395 -0.287945,0.365575 -0.727365,0.544225 -1.31375,0.544225 -0.568383,0 -0.94032,-0.195 -1.114283,-0.588275 C 33.241005,81.666125 33.229,80.997125 33.384902,80.051 l 2.32305,-13.954955 -6.130795,0 -2.41153,14.47698 c -0.458917,2.77445 0.106538,4.792575 1.700668,6.0462 1.256745,0.995925 2.934925,1.49095 5.03752,1.49095 1.849125,0 3.500307,-0.4499 4.94302,-1.34505 1.073795,-0.673675 1.883642,-1.426525 2.438527,-2.25545 0.550401,-0.794975 0.934311,-1.833 1.147278,-3.113625 l 2.543497,-15.300005 -6.133802,0 -2.32304,13.969605" />
  <path
     id="path70"
     style="fill:#46962b;fill-opacity:1;fill-rule:nonzero;stroke:none"
     d="m 36.610838,60.442845 c -0.376421,-0.438742 -0.889323,-0.65828 -1.543193,-0.65828 -0.64188,0 -1.22677,0.219538 -1.75766,0.65828 -0.526403,0.43421 -0.842828,0.961385 -0.946315,1.576507 -0.101975,0.616208 0.03899,1.13953 0.422917,1.572898 0.38542,0.433577 0.898325,0.65615 1.5417,0.65615 0.63288,0 1.213268,-0.222573 1.744158,-0.65615 0.538392,-0.444027 0.857837,-0.965947 0.959815,-1.572898 0.103547,-0.615122 -0.03899,-1.142297 -0.421423,-1.576507" />
  <path
     id="path72"
     style="fill:#46962b;fill-opacity:1;fill-rule:nonzero;stroke:none"
     d="m 43.128568,60.452328 c -0.391433,-0.442836 -0.90882,-0.667763 -1.549205,-0.667763 -0.65387,0 -1.244755,0.219538 -1.774148,0.65828 -0.53089,0.43421 -0.84733,0.95083 -0.94482,1.567037 -0.10654,0.621708 0.03457,1.149 0.419928,1.582368 0.38542,0.433577 0.908817,0.65615 1.568682,0.65615 0.641883,0 1.22976,-0.222573 1.757658,-0.65615 0.526405,-0.433368 0.842845,-0.946633 0.941817,-1.54303 0.106553,-0.630343 -0.03599,-1.163543 -0.419912,-1.596893" />
</svg>
