<?xml version="1.0" encoding="UTF-8" standalone="no"?>
<svg
   xmlns:dc="http://purl.org/dc/elements/1.1/"
   xmlns:cc="http://creativecommons.org/ns#"
   xmlns:rdf="http://www.w3.org/1999/02/22-rdf-syntax-ns#"
   xmlns:svg="http://www.w3.org/2000/svg"
   xmlns="http://www.w3.org/2000/svg"
   id="svg2"
   height="135"
   width="250"
   version="1.0">
  <metadata
     id="metadata3075">
    <rdf:RDF>
      <cc:Work
         rdf:about="">
        <dc:format>image/svg+xml</dc:format>
        <dc:type
           rdf:resource="http://purl.org/dc/dcmitype/StillImage" />
        <dc:title></dc:title>
      </cc:Work>
    </rdf:RDF>
  </metadata>
  <defs
     id="defs5" />
  <path
     d="m 0,135 153.63897,0 1.92564,-11.2988 -153.6584797,0 L 0,135"
     style="fill:#4cb4e7;fill-opacity:1;fill-rule:nonzero;stroke:none"
     id="path74" />
  <g
     style="fill:#ffee00;fill-opacity:1"
     id="g3064"
     transform="matrix(0.14673787,0,0,-0.14673787,-24.131782,158.67114)">
    <path
       d="m 1338.57,688.898 c -3.71,0.024 -6.7,-1.472 -7.61,-2.445 -0.57,-0.558 -1.5,-0.558 -2.07,0 -0.04,0.027 -0.06,0.055 -0.08,0.074 -1.08,1.028 -0.1,2.524 -0.1,2.524 1.39,2.031 6.61,3.281 9.82,2.929 3.28,-0.363 6.61,-1.539 10.14,-5.687 -1.7,5.004 -6.36,8.66 -12.04,8.66 -7.09,0 -12.84,-5.644 -12.84,-12.586 0,-6.933 5.75,-12.57 12.84,-12.57 7.1,0 12.85,5.637 12.85,12.57 0,0.672 -0.28,1.274 -0.39,1.914 -1.6,2.586 -6.05,4.598 -10.52,4.617"
       style="fill:#ffee00;fill-opacity:1;fill-rule:nonzero;stroke:none"
       id="path22" />
    <path
       d="m 1868.13,692.59 c -0.34,2.277 -6.08,4.328 -9.91,7.492 -13.02,10.867 -59.63,56.719 -151.31,53.75 -11.6,-0.371 -22.18,-1.465 -31.81,-3.117 19.53,6.34 29.63,10.129 35.53,12.48 7.08,2.805 53.88,18.848 79.06,101.047 2.15,7.031 8.22,23.973 6.72,25.242 -1.88,1.59 -17.62,-1.218 -33.52,-10.91 -15.96,-9.683 -69.55,-18.14 -75.92,-19.168 -3.73,-0.594 -19.47,1.758 -42.99,-10.594 26.51,27.215 54.61,65.907 62.17,120.176 3.6,26.043 2.07,36.662 0.96,36.592 -1.58,-0.12 -2.46,-0.13 -4.4,-0.71 -5.89,-1.73 -11.89,-6.733 -31.36,-19.761 -19.53,-13.035 -40.2,-27.48 -40.2,-27.48 0,0 7.07,70.901 4.87,72.551 -2.15,1.6 -42.41,1.21 -104.18,-67.59 0,0 7.01,58.94 -4.57,81.17 0,0 -3.23,16.09 -5.75,24.48 -1.25,4.22 -4.55,8.67 -5.09,8.29 -0.65,-0.46 -6.12,-1.35 -14.89,-11.44 -13.63,-15.61 -76.97,-34.7 -87.48,-116.66 -7.93,33.066 -24.76,77.3 -66.35,99.7 -23.49,22.99 -33.92,29.86 -35.13,29.26 -1.06,-0.54 -0.61,-10.76 -4.16,-33.77 -4.03,-25.8 -7.6,-33.97 -7.6,-33.97 0,0 -43.59,38.33 -44.71,39.44 -2.05,2.03 -28.61,-82.106 -20.82,-124.106 0,0 -13.79,10.672 -38.88,23.575 -28.5,14.629 -76.43,17.148 -76.1,14.902 0.59,-3.781 40.45,-81.699 57.25,-109.063 0,0 -107.44,18.457 -105.55,11.747 0.61,-2.215 3.19,-6.434 7.42,-24.364 0,0 -42.14,0.918 -41.6,-2.582 0.59,-3.883 31.96,-55.719 34.36,-58.551 0,0 -32.62,-6.3 -39.49,-6.679 -4.67,-0.246 26.69,-85.781 99.08,-104.485 23.49,-6.074 41.1,-10.429 64.09,-11.23 -0.27,0.969 -0.62,1.926 -0.62,2.988 0,6.328 5.24,11.446 11.69,11.446 3.89,0 7.17,-1.973 9.3,-4.825 25.52,1.731 46.14,15.782 57.18,35.977 5.91,11.437 11.93,22.101 18.43,31.894 -24.78,27.461 -42.37,34.258 -50.44,37.903 -3.7,1.66 0.57,3.425 0.57,3.425 15.22,4.961 42.35,-3.808 62.98,-14.414 -10.25,34.336 -4.44,69.309 8.22,84.473 0,0 7.9,9.649 7.37,3.078 -0.72,-8.492 2.08,-42.164 20.61,-66.664 0.06,0.031 0.11,0.051 0.16,0.082 -5.65,22.352 -2.37,47.891 12.57,59.149 0,0 3.17,2.699 2.59,-0.68 -1.33,-7.606 -1.15,-24.043 11.26,-47.25 1.26,22.445 9.27,54.656 23.23,64.828 0,0 3.67,2.262 3,-1.379 -1.46,-7.922 -5.43,-24.492 2.51,-57.051 12.96,37.598 38.17,60.032 59.55,67.364 0,0 13.07,3.386 8.35,-1.926 -6.19,-6.969 -22.5,-34.863 -21.93,-67.957 0.08,-0.012 0.16,-0.02 0.24,-0.031 5.23,20.343 23.73,36.789 45.15,34.57 0,0 3.9,-0.289 0.92,-2.399 -2.55,-1.8 -20.98,-13.136 -21.32,-37.558 27.88,27.355 63.13,40.515 88.87,33.976 0,0 7.23,-1.617 0.95,-4.644 -4.28,-2.051 -29.23,-14.793 -47.09,-39.336 18.02,10.715 39.78,15.207 54.35,6.945 0,0 3.74,-1.855 0.33,-2.605 -6.77,-1.477 -19.59,-6.711 -34.31,-21.606 25.2,7.168 57.2,10.871 72.84,2.012 0,0 4.31,-2.891 -0.14,-3.906 -7.36,-1.68 -21.1,-4.141 -41.87,-15.899 17.93,0.254 36.26,-2.343 45.2,-9.785 0,0 3.08,-2.988 -0.71,-3.164 -6.36,-0.312 -18.33,-0.449 -37.51,-7.285 28.26,-7.957 50.45,-24.824 57.23,-39.617 0,0 4.99,-10.586 -0.45,-7.375 -5.76,3.418 -27.24,12.043 -50.76,12.226 22.24,-10.664 40.91,-30.046 40.57,-49.433 0,0 0.18,-4.453 -2.33,-1.688 -4.28,4.688 -13.55,12 -29.87,17.657 17.08,-17.485 37.6,-48.555 35.2,-67.153 0,0 -0.94,-4.461 -3.32,-1.25 -4.69,6.352 -13.42,19.574 -38.62,35.578 19.22,-26.648 27.98,-63.269 13.19,-85.222 0,0 -2.87,-4.836 -3.62,-0.235 -1.34,7.969 -6.16,22.274 -20.38,39.61 5.31,-19.766 4.49,-65.391 -10.3,-80.227 0,0 -3.26,-2.801 -3.18,0.918 0.14,6.934 1.07,20.535 -7.03,43.977 2.2,-30.637 -11.96,-59.055 -26.16,-67.715 0,0 -7.9,-4.903 -5.91,-0.434 1.37,3.125 3.81,11.731 4.68,22.309 -14.47,-23.281 -35.44,-38.653 -54.64,-39.766 0,0 -5.93,-0.519 -1.9,3.301 1.68,1.59 8.3,8.172 14.87,18.301 -15.9,-14.043 -37.5,-27.617 -52.08,-26.719 0,0 -4.27,0.586 -1.34,2.949 3.86,3.125 10.59,8.125 18.75,18.32 -15.16,-14.238 -38.03,-19.804 -56.46,-9.425 0,0 -3.82,2.004 0.18,2.832 2.45,0.519 15.65,2.433 27.16,12.746 -23.09,-11.25 -48.28,-12.348 -60.94,-5.977 0,0 -8.36,4.11 -3.42,4.727 2.68,0.351 8.52,1.836 15.51,4.637 -6.31,0.636 -12.34,1.867 -17.85,3.625 -12.37,-20.364 -24.05,-41.036 -32.85,-59.075 -14.06,-28.64 -23.3,-59.199 -26.77,-87 -0.94,-30.136 2.46,-84.425 0.68,-96.066 -1.05,-6.805 0.51,-7.539 1.58,-9.785 0.34,-0.703 11.57,8.574 15.14,10.949 5.29,3.516 60.16,77.273 63.59,95.723 0,0 29.26,-128.508 39.18,-142.274 2.17,-2.969 3.95,-6.289 5.41,-3.98 2.93,4.582 7.31,16.586 10.59,17.582 4.22,1.258 16.58,2.812 23.09,21.14 6.48,18.332 18.18,36.231 23.67,83.789 0,0 62.17,-79.285 70.25,-86.648 3.22,-2.949 20.1,25.156 27.54,70.313 7.46,45.164 -8.57,105.839 -18.71,107.91 0,0 -4.22,6.66 7.58,2.437 6.68,-2.41 32.56,-47.32 92.24,-81.414 10.04,-5.754 31.41,-5.848 31.53,-5.461 4.8,13.391 -42.03,135.957 -42.03,135.957 0,0 1.15,1.399 10.58,-2.469 9.42,-3.867 98.85,-61.699 153.11,-34.597 11.01,5.484 11.64,6.66 11.64,6.66 6.21,26.699 -41.56,77.215 -70.92,100.176 0,0 77.07,3.125 88.89,23.554 0,0 14.22,5.125 21.54,15.235 1.27,1.785 -8.3,19.363 -19.41,27.09 -29.11,20.183 -35.41,27.781 -35.41,27.781 0,0 8.14,9.836 19.9,13.516 11.74,3.679 49.72,27.121 39.59,38.671 0,0 12.22,10.618 11.78,13.399"
       style="fill:#ffee00;fill-opacity:1;fill-rule:nonzero;stroke:none"
       id="path24" />
  </g>
  <path
     d="m 146.79581,117.1072 0.91934,-5.52195 c 0.13946,-0.84595 0.24594,-1.83885 0.32092,-2.96485 0.0764,-1.13245 0.11698,-2.4552 0.12897,-3.9836 0.0794,0.6737 0.18747,1.3831 0.31645,2.1254 0.13347,0.7392 0.28945,1.53548 0.46639,2.38883 l 1.72768,7.95617 5.91185,0 3.59628,-21.62745 -5.91334,0 -0.80983,4.86358 c -0.14847,0.90752 -0.27146,2.02645 -0.37943,3.3626 -0.10499,1.3327 -0.20397,2.94207 -0.28644,4.81852 l -0.31645,-1.90465 c -0.12597,-0.75635 -0.24294,-1.4294 -0.35543,-2.0023 -0.11097,-0.58175 -0.21445,-1.09898 -0.30143,-1.54303 l -1.76817,-7.59472 -5.5729,0 -3.5978,21.62745 5.91334,0"
     style="fill:#46962b;fill-opacity:1;fill-rule:nonzero;stroke:none"
     id="path30" />
  <path
     d="m 138.34047,117.1072 0.85934,-5.17277 -5.26697,0 0.50689,-3.03685 4.72258,0 0.85933,-5.17808 -4.72258,0 0.51141,-3.0676 5.26246,0 0.86234,-5.17215 -11.40077,0 -3.5948,21.62745 11.40077,0"
     style="fill:#46962b;fill-opacity:1;fill-rule:nonzero;stroke:none"
     id="path32" />
  <path
     d="m 114.31816,117.1072 0.91933,-5.52195 c 0.14096,-0.84595 0.24895,-1.83885 0.32243,-2.96485 0.078,-1.13245 0.11842,-2.4552 0.12597,-3.9836 0.081,0.6737 0.19047,1.3831 0.32395,2.1254 0.13047,0.7392 0.28344,1.53548 0.4634,2.38883 l 1.72617,7.95617 5.91185,0 3.59778,-21.62745 -5.91334,0 -0.80684,4.86358 c -0.15147,0.90752 -0.27744,2.02645 -0.38843,3.3626 -0.0975,1.3327 -0.19646,2.94207 -0.28344,4.81852 l -0.31344,-1.90465 c -0.12897,-0.75635 -0.24446,-1.4294 -0.35843,-2.0023 -0.11098,-0.58175 -0.20996,-1.09898 -0.29995,-1.54303 l -1.76814,-7.59472 -5.56992,0 -3.59929,21.62745 5.91033,0"
     style="fill:#46962b;fill-opacity:1;fill-rule:nonzero;stroke:none"
     id="path34" />
  <path
     d="m 90.240368,102.69487 c 0.409414,-2.44582 -0.148473,-4.333995 -1.675178,-5.65977 -1.20276,-1.033225 -3.18388,-1.55535 -5.95084,-1.55535 l -6.280772,0 -3.594796,21.62745 6.100808,0 1.259753,-7.56768 0.194962,-1.4265 c 0.05699,0.29995 0.10498,0.55958 0.143973,0.77275 0.03899,0.21155 0.06142,0.3885 0.06898,0.51545 l 1.748657,7.70598 6.63471,0 -3.06691,-8.99118 c 2.512013,-1 3.983235,-2.80852 4.416648,-5.42115 m -6.045328,-0.24904 c -0.136467,0.79497 -0.478397,1.44759 -1.033295,1.96487 -0.557892,0.51443 -1.18927,0.76735 -1.895632,0.76735 l -0.410918,0 0.857833,-5.1512 0.221955,0 c 1.77115,0 2.525502,0.80563 2.260057,2.41898"
     style="fill:#46962b;fill-opacity:1;fill-rule:nonzero;stroke:none"
     id="path36" />
  <path
     d="m 63.235137,109.15103 2.266058,0 c -0.07055,0.42595 -0.187465,0.80557 -0.346433,1.1488 -0.161967,0.3494 -0.350932,0.63742 -0.572887,0.87702 -0.221958,0.2403 -0.473908,0.42475 -0.760353,0.5566 -0.286442,0.13535 -0.59388,0.20098 -0.914825,0.20098 -0.815842,0 -1.340737,-0.39898 -1.582185,-1.20098 -0.239952,-0.79665 -0.212955,-2.0803 0.07942,-3.8454 0.692878,-4.15287 1.88064,-6.23615 3.56631,-6.23615 0.481408,0 0.847335,0.19978 1.100788,0.59895 0.25345,0.39713 0.365927,0.93728 0.340432,1.6162 l 6.28827,-2.0768 c -1.028797,-3.5394 -3.33685,-5.3105 -6.927147,-5.3105 -2.706968,0 -5.001518,0.9748 -6.882158,2.92165 -1.88363,1.94963 -3.10889,4.61153 -3.671277,7.99765 -0.551895,3.32908 -0.214463,5.95708 1.016805,7.86758 1.244755,1.89095 3.236357,2.84057 5.97183,2.84057 2.781955,0 5.048012,-0.96775 6.793672,-2.90215 1.597188,-1.77862 2.735463,-4.68767 3.404333,-8.72827 l 0.143972,-0.86513 -8.557327,0 -0.75735,4.53938"
     style="fill:#46962b;fill-opacity:1;fill-rule:nonzero;stroke:none"
     id="path38" />
  <path
     d="m 41.613867,117.1072 0.86083,-5.17277 -5.26698,0 0.503906,-3.03685 4.72558,0 0.857837,-5.17808 -4.722575,0 0.511393,-3.0676 5.26547,0 0.860827,-5.17215 -11.40226,0 -3.596305,21.62745 11.402278,0"
     style="fill:#46962b;fill-opacity:1;fill-rule:nonzero;stroke:none"
     id="path40" />
  <path
     d="m 30.992945,95.47975 -6.13681,0 -3.594791,21.62745 6.135299,0 3.596302,-21.62745"
     style="fill:#46962b;fill-opacity:1;fill-rule:nonzero;stroke:none"
     id="path42" />
  <path
     d="m 20.794937,106.3093 c 0.604385,-3.6414 -0.03457,-6.47455 -1.910631,-8.503825 -1.432218,-1.546 -3.662293,-2.325725 -6.691692,-2.325725 l -5.2954742,0 -3.5947923,21.62745 5.7363765,0 c 3.164386,0 5.685395,-0.83408 7.560026,-2.49443 2.201579,-1.95252 3.597796,-4.71762 4.196187,-8.30347 m -6.304776,0.2185 c -0.583379,3.5003 -1.982602,5.30175 -4.194677,5.40662 l 1.829645,-11.0105 0.194952,0 c 0.949321,0 1.619696,0.5009 2.011111,1.51313 0.392927,0.99412 0.446913,2.36487 0.158969,4.09075"
     style="fill:#46962b;fill-opacity:1;fill-rule:nonzero;stroke:none"
     id="path44" />
  <path
     d="m 163.00465,69.011125 c -1.07979,-1.939092 -2.87494,-2.905022 -5.37495,-2.905022 -2.479,0 -4.6131,0.956567 -6.38875,2.864097 -1.76967,1.902125 -2.92893,4.489025 -3.47032,7.7632 -0.5729,3.462875 -0.29845,6.16235 0.83383,8.087975 1.14127,1.93785 2.99941,2.909075 5.58042,2.909075 2.38003,0 4.43761,-0.957675 6.17128,-2.8792 1.72768,-1.9315 2.86745,-4.530775 3.41184,-7.793925 0.57139,-3.4269 0.31194,-6.107025 -0.76335,-8.0462 m -5.29247,8.009975 c -0.31793,1.900425 -0.71234,3.296475 -1.19226,4.1951 -0.47391,0.892125 -1.0588,1.337525 -1.75916,1.337525 -1.28375,0 -1.58519,-2.045875 -0.90582,-6.136575 0.57437,-3.42415 1.5147,-5.140025 2.82845,-5.140025 1.32125,0 1.66767,1.910975 1.02879,5.743975"
     style="fill:#46962b;fill-opacity:1;fill-rule:nonzero;stroke:none"
     id="path46" />
  <path
     d="m 145.01415,68.220353 c -1.12928,-1.412013 -2.80893,-2.11425 -5.03451,-2.11425 -2.35752,0 -4.37464,0.707645 -6.06781,2.124804 -1.69916,1.436368 -2.73697,3.277518 -3.11038,5.519643 -0.30744,1.866925 -0.0374,3.46445 0.82483,4.791375 0.87433,1.300525 2.09059,1.9484 3.64879,1.9484 0.62987,0 1.38422,-0.2038 2.27056,-0.617975 -0.29394,0.339175 -0.5609,0.65255 -0.79784,0.937225 -0.24446,0.28655 -0.44843,0.541375 -0.62389,0.7739 l -4.6581,6.146975 6.59274,0 2.69645,-3.7117 c 3.17489,-4.359725 4.97002,-7.765025 5.37645,-10.22325 0.38092,-2.3034 0.0119,-4.160525 -1.11729,-5.575147 m -4.75106,5.304047 c -0.30294,1.847025 -1.02579,2.77565 -2.16858,2.77565 -1.20576,0 -1.64816,-0.9164 -1.34672,-2.7488 0.32244,-1.937375 1.07978,-2.905725 2.26755,-2.905725 1.15177,0 1.56868,0.95505 1.24775,2.878875"
     style="fill:#46962b;fill-opacity:1;fill-rule:nonzero;stroke:none"
     id="path48" />
  <path
     d="m 112.21108,87.73045 c 2.08909,0 3.92622,-0.6642 5.50841,-1.9958 1.5897,-1.3392 2.5495,-3.029425 2.88995,-5.080775 0.20096,-1.20925 0.096,-2.261925 -0.32243,-3.16295 -0.41243,-0.898625 -1.19228,-1.78035 -2.34555,-2.636725 l -0.85933,-0.65855 c -0.74536,-0.551775 -1.06781,-1.10365 -0.97481,-1.661425 0.0584,-0.342075 0.26244,-0.6367 0.61786,-0.882225 0.34344,-0.251825 0.75286,-0.374875 1.22526,-0.374875 0.61789,0 1.21178,0.214975 1.77416,0.635625 0.5684,0.431175 1.03931,1.006975 1.41873,1.744475 l 1.0783,-6.481993 c -1.36473,-0.714817 -2.77298,-1.06913 -4.23667,-1.06913 -1.6377,0 -3.10891,0.448725 -4.41666,1.34735 -0.47389,0.315173 -0.90581,0.679088 -1.29874,1.091898 -0.39143,0.4102 -0.75285,0.8641 -1.08128,1.355125 -0.66438,1.065525 -1.0783,2.08665 -1.24177,3.05665 -0.0915,0.567275 -0.11541,1.109675 -0.066,1.62415 0.051,0.513 0.18748,1.011 0.40193,1.493825 0.21297,0.479775 0.5189,0.952475 0.91332,1.406375 0.39593,0.45635 0.88633,0.91335 1.47722,1.3767 l 0.88032,0.709525 c 0.63887,0.535475 0.91182,1.080325 0.81734,1.636275 -0.0644,0.39005 -0.28494,0.708075 -0.65987,0.9659 -0.37793,0.2606 -0.82783,0.38385 -1.35873,0.38385 -1.40223,0 -2.5765,-0.77685 -3.52281,-2.35155 l -1.10528,6.6515 c 1.55219,0.583325 3.0459,0.876775 4.48712,0.876775"
     style="fill:#46962b;fill-opacity:1;fill-rule:nonzero;stroke:none"
     id="path50" />
  <path
     d="m 108.83973,66.106103 -6.1338,0 -3.594793,21.624347 6.135303,0 3.59329,-21.624347"
     style="fill:#46962b;fill-opacity:1;fill-rule:nonzero;stroke:none"
     id="path52" />
  <path
     d="m 86.489598,87.73045 0.91933,-5.5201 c 0.143972,-0.847175 0.251942,-1.8419 0.325424,-2.96955 0.07499,-1.13245 0.116988,-2.4546 0.122983,-3.97425 0.08399,0.6672 0.188958,1.37255 0.32094,2.117725 0.13497,0.7453 0.286433,1.54315 0.466405,2.390775 l 1.72616,7.9554 5.91185,0 3.597795,-21.624347 -5.91185,0 -0.808338,4.859897 c -0.152972,0.901025 -0.27745,2.027 -0.383925,3.3621 -0.103532,1.3315 -0.199467,2.941975 -0.28494,4.8214 l -0.31795,-1.907525 c -0.125972,-0.75755 -0.24145,-1.426525 -0.355415,-2.003625 -0.110992,-0.5821 -0.209962,-1.0919 -0.301445,-1.5436 l -1.769662,-7.588648 -5.57291,0 -3.591803,21.624348 5.90735,0"
     style="fill:#46962b;fill-opacity:1;fill-rule:nonzero;stroke:none"
     id="path54" />
  <path
     d="m 80.507262,76.93435 c 0.604383,-3.649075 -0.03298,-6.4809 -1.910627,-8.506103 -1.42922,-1.548887 -3.659283,-2.322145 -6.690193,-2.322145 l -5.295465,0 -3.596292,21.624348 5.736375,0 c 3.167382,0 5.689887,-0.8318 7.564522,-2.490825 2.19707,-1.953725 3.593295,-4.7194 4.19168,-8.305275 m -6.30177,0.2192 c -0.584885,3.500325 -1.98411,5.296975 -4.197677,5.400175 l 1.832642,-11.00895 0.191963,0 c 0.952313,0 1.618185,0.5039 2.014103,1.51555 0.389927,0.9988 0.442415,2.360875 0.15897,4.093225"
     style="fill:#46962b;fill-opacity:1;fill-rule:nonzero;stroke:none"
     id="path56" />
  <path
     d="m 50.396147,87.73045 0.916325,-5.5201 c 0.140968,-0.847175 0.248953,-1.8419 0.326935,-2.96955 0.07199,-1.13245 0.115538,-2.4546 0.122968,-3.97425 0.07955,0.6672 0.190467,1.37255 0.319445,2.117725 0.134973,0.7453 0.290935,1.54315 0.466408,2.390775 l 1.727667,7.9554 5.91034,0 3.596295,-21.624347 -5.911842,0 L 57.06235,70.966 c -0.148475,0.901025 -0.278945,2.027 -0.382432,3.3621 -0.101976,1.3315 -0.199468,2.941975 -0.284938,4.8214 l -0.317952,-1.907525 c -0.122965,-0.75755 -0.245948,-1.426525 -0.355415,-2.003625 -0.110975,-0.5821 -0.211458,-1.0919 -0.301443,-1.5436 l -1.768155,-7.588648 -5.571412,0 -3.59481,21.624348 5.910355,0"
     style="fill:#46962b;fill-opacity:1;fill-rule:nonzero;stroke:none"
     id="path58" />
  <path
     d="m 25.863942,72.238975 c 0.30294,-1.82005 -0.103547,-3.30525 -1.216259,-4.45738 -1.097793,-1.119023 -2.981422,-1.675493 -5.6479,-1.675493 l -7.134104,0 -3.596302,21.624348 8.590332,0 c 2.048592,0 3.794245,-0.5682 5.241474,-1.711125 1.450218,-1.127625 2.332036,-2.62085 2.642481,-4.477975 0.244455,-1.4787 0.05699,-2.60455 -0.563898,-3.389 -0.616375,-0.787425 -1.712659,-1.289975 -3.284348,-1.51325 2.859934,-0.22665 4.517112,-1.6888 4.968524,-4.400125 m -9.505147,6.647975 c 0.793343,0 1.388728,0.18455 1.783149,0.561275 0.389937,0.374925 0.535403,0.89335 0.424427,1.55935 -0.112427,0.6644 -0.430423,1.191125 -0.947825,1.588225 -0.523398,0.397125 -1.165264,0.589325 -1.933115,0.589325 -0.05699,0 -0.128978,0 -0.218963,0 -0.08553,0 -0.18896,-0.012 -0.305931,-0.017 l 0.710861,-4.275825 0.487397,0 z m 3.37734,-6.408275 c -0.100543,0.588125 -0.388412,1.045725 -0.86983,1.370825 -0.482897,0.329875 -1.090287,0.48905 -1.823633,0.48905 l -0.412422,0 0.617871,-3.70755 c 0.145481,-0.012 0.272949,-0.018 0.376434,-0.0215 0.103533,0 0.190453,-0.012 0.260945,-0.012 1.439723,0 2.057592,0.6257 1.850635,1.87705"
     style="fill:#46962b;fill-opacity:1;fill-rule:nonzero;stroke:none"
     id="path60" />
  <path
     d="m 100.50736,109.58872 c -0.16196,0.97196 -0.38992,1.64683 -0.67787,2.0311 -0.287945,0.36558 -0.724362,0.54723 -1.31224,0.54723 -0.568385,0 -0.941817,-0.1963 -1.11578,-0.59248 -0.175472,-0.38535 -0.182963,-1.05432 -0.02702,-1.9976 l 2.321543,-13.951845 -6.133803,0 -2.408523,14.466305 c -0.461907,2.77735 0.10498,4.79439 1.700665,6.0545 1.255251,0.99232 2.934928,1.48615 5.034515,1.48615 1.85364,0 3.501818,-0.4499 4.943038,-1.34566 1.07378,-0.67307 1.88363,-1.42472 2.43701,-2.25545 0.5519,-0.79314 0.93582,-1.83227 1.14878,-3.11002 l 2.54351,-15.295825 -6.1338,0 -2.32005,13.963595"
     style="fill:#46962b;fill-opacity:1;fill-rule:nonzero;stroke:none"
     id="path62" />
  <path
     d="m 100.59434,89.9637 c -0.37342,-0.437575 -0.887818,-0.65375 -1.540193,-0.65375 -0.64188,0 -1.228264,0.216175 -1.754652,0.65375 -0.530905,0.433575 -0.84585,0.9585 -0.94932,1.58235 -0.101978,0.615 0.04043,1.13345 0.422915,1.567025 0.383927,0.438275 0.89683,0.65555 1.540205,0.65555 0.632865,0 1.213255,-0.217275 1.744155,-0.65555 0.53689,-0.44055 0.86083,-0.96245 0.95831,-1.567025 0.10498,-0.62385 -0.0346,-1.148775 -0.42142,-1.58235"
     style="fill:#46962b;fill-opacity:1;fill-rule:nonzero;stroke:none"
     id="path64" />
  <path
     d="m 107.11507,89.97725 c -0.39293,-0.44715 -0.91033,-0.6673 -1.5507,-0.6673 -0.65387,0 -1.24175,0.216175 -1.77415,0.65375 -0.5279,0.433575 -0.84433,0.955475 -0.94332,1.5688 -0.10497,0.622075 0.0346,1.147 0.42142,1.580575 0.38243,0.438275 0.90583,0.65555 1.5657,0.65555 0.64487,0 1.22976,-0.217275 1.75765,-0.65555 0.5294,-0.433575 0.84283,-0.947825 0.94331,-1.544825 0.10343,-0.629775 -0.0346,-1.15765 -0.41991,-1.591"
     style="fill:#46962b;fill-opacity:1;fill-rule:nonzero;stroke:none"
     id="path66" />
  <path
     d="m 36.519357,80.06565 c -0.161972,0.9689 -0.385422,1.65435 -0.674862,2.03395 -0.287945,0.365575 -0.727365,0.544225 -1.31375,0.544225 -0.568383,0 -0.94032,-0.195 -1.114283,-0.588275 C 33.241005,81.666125 33.229,80.997125 33.384902,80.051 l 2.32305,-13.954955 -6.130795,0 -2.41153,14.47698 c -0.458917,2.77445 0.106538,4.792575 1.700668,6.0462 1.256745,0.995925 2.934925,1.49095 5.03752,1.49095 1.849125,0 3.500307,-0.4499 4.94302,-1.34505 1.073795,-0.673675 1.883642,-1.426525 2.438527,-2.25545 0.550401,-0.794975 0.934311,-1.833 1.147278,-3.113625 l 2.543497,-15.300005 -6.133802,0 -2.32304,13.969605"
     style="fill:#46962b;fill-opacity:1;fill-rule:nonzero;stroke:none"
     id="path68" />
  <path
     d="m 36.610838,60.442845 c -0.376421,-0.438742 -0.889323,-0.65828 -1.543193,-0.65828 -0.64188,0 -1.22677,0.219538 -1.75766,0.65828 -0.526403,0.43421 -0.842828,0.961385 -0.946315,1.576507 -0.101975,0.616208 0.03899,1.13953 0.422917,1.572898 0.38542,0.433577 0.898325,0.65615 1.5417,0.65615 0.63288,0 1.213268,-0.222573 1.744158,-0.65615 0.538392,-0.444027 0.857837,-0.965947 0.959815,-1.572898 0.103547,-0.615122 -0.03899,-1.142297 -0.421423,-1.576507"
     style="fill:#46962b;fill-opacity:1;fill-rule:nonzero;stroke:none"
     id="path70" />
  <path
     d="m 43.128568,60.452328 c -0.391433,-0.442836 -0.90882,-0.667763 -1.549205,-0.667763 -0.65387,0 -1.244755,0.219538 -1.774148,0.65828 -0.53089,0.43421 -0.84733,0.95083 -0.94482,1.567037 -0.10654,0.621708 0.03457,1.149 0.419928,1.582368 0.38542,0.433577 0.908817,0.65615 1.568682,0.65615 0.641883,0 1.22976,-0.222573 1.757658,-0.65615 0.526405,-0.433368 0.842845,-0.946633 0.941817,-1.54303 0.106553,-0.630343 -0.03599,-1.163543 -0.419912,-1.596893"
     style="fill:#46962b;fill-opacity:1;fill-rule:nonzero;stroke:none"
     id="path72" />
</svg>
